<svg xmlns="http://www.w3.org/2000/svg" width="225pt" height="225pt" viewBox="0 0 225 225.00001"><path fill="#ffe000" d="M240.958 529.653H52.067c-9.975 0-18.052-8.09-18.052-18.058V322.711c0-9.968 8.077-18.058 18.052-18.058h188.89c9.969 0 18.059 8.09 18.059 18.058v188.884c0 9.969-8.09 18.058-18.058 18.058" style="stroke-width:6.61452;fill:#f9e000;fill-opacity:1" transform="translate(-34.015 -304.653)"/><path fill="#0078b8" d="m199.856 408.366-41.268 24.6c-.834.495-1.508.105-1.508-.854V415.37h-22.907c-.965 0-1.759.788-1.759 1.76v33.972c0 .98-.675 1.356-1.515.86l-14.578-8.579c-.834-.496-1.515-1.68-1.515-2.652v-37.69c0-2.91 2.368-5.292 5.285-5.292h36.989v-17.118c0-.76.529-1.058 1.184-.675l41.592 24.798c1.68 1.005 1.667 2.62 0 3.612m15.319-37.564-62.58-36.552c-3.36-1.965-8.81-1.965-12.17 0l-62.58 36.552c-2.938 1.713-5.319 5.86-5.319 9.267v74.109c0 3.4 2.381 7.547 5.318 9.267l62.58 36.552c3.36 1.964 8.81 1.964 12.17 0l62.581-36.552c2.937-1.72 5.318-5.867 5.318-9.267v-74.11c0-3.406-2.368-7.553-5.318-9.266" style="stroke-width:6.61452;fill:#1977d1;fill-opacity:1" transform="translate(-34.015 -304.653)"/></svg>